<svg width="28" height="28" viewBox="0 0 28 29" fill="none" xmlns="http://www.w3.org/2000/svg">
<path d="M17.1889 6.79702L23.7422 13.3504C23.9594 13.5676 24.0814 13.8622 24.0814 14.1694C24.0814 14.4766 23.9594 14.7712 23.7422 14.9884L17.1889 21.5417C16.9704 21.7528 16.6778 21.8695 16.374 21.8669C16.0703 21.8642 15.7797 21.7424 15.565 21.5276C15.3502 21.3128 15.2283 21.0223 15.2257 20.7185C15.2231 20.4148 15.3398 20.1222 15.5508 19.9037L20.1267 15.3278H4.7854C4.47816 15.3278 4.18351 15.2058 3.96625 14.9885C3.749 14.7713 3.62695 14.4766 3.62695 14.1694C3.62695 13.8621 3.749 13.5675 3.96625 13.3502C4.18351 13.133 4.47816 13.0109 4.7854 13.0109H20.1267L15.5508 8.43506C15.4402 8.3282 15.352 8.20037 15.2912 8.05904C15.2305 7.9177 15.1986 7.76569 15.1972 7.61187C15.1959 7.45805 15.2252 7.30551 15.2835 7.16314C15.3417 7.02077 15.4277 6.89143 15.5365 6.78266C15.6453 6.67389 15.7746 6.58787 15.917 6.52963C16.0593 6.47138 16.2119 6.44207 16.3657 6.4434C16.5195 6.44474 16.6715 6.4767 16.8129 6.53741C16.9542 6.59812 17.082 6.68638 17.1889 6.79702Z" fill="#F9F9F9"/>
</svg>
