<svg width="16" height="17" viewBox="0 0 16 17" fill="none" xmlns="http://www.w3.org/2000/svg">
<path d="M6.50008 4.13363H12.1667M6.50008 8.13363H12.1667M6.50008 12.1336H12.1667M4.33341 4.13363C4.33341 4.31772 4.18418 4.46696 4.00008 4.46696C3.81599 4.46696 3.66675 4.31772 3.66675 4.13363C3.66675 3.94953 3.81599 3.80029 4.00008 3.80029C4.18418 3.80029 4.33341 3.94953 4.33341 4.13363ZM4.33341 8.13363C4.33341 8.31772 4.18418 8.46696 4.00008 8.46696C3.81599 8.46696 3.66675 8.31772 3.66675 8.13363C3.66675 7.94953 3.81599 7.80029 4.00008 7.80029C4.18418 7.80029 4.33341 7.94953 4.33341 8.13363ZM4.33341 12.1336C4.33341 12.3177 4.18418 12.467 4.00008 12.467C3.81599 12.467 3.66675 12.3177 3.66675 12.1336C3.66675 11.9495 3.81599 11.8003 4.00008 11.8003C4.18418 11.8003 4.33341 11.9495 4.33341 12.1336Z" stroke="#667085" stroke-width="1.5" stroke-linecap="round" stroke-linejoin="round"/>
</svg>
