<svg width="34" height="34" viewBox="0 0 57 57" fill="none" xmlns="http://www.w3.org/2000/svg">
<rect x="14.1582" y="14.3633" width="28.3363" height="28.3363" rx="14.1682" fill="#D14343"/>
<g opacity="0.8">
<path d="M32.4493 23.1413L22.9364 32.6542C22.5864 33.0041 22.5864 33.5716 22.9364 33.9215L22.9374 33.9225C23.2873 34.2724 23.8548 34.2724 24.2047 33.9225L33.7176 24.4096C34.0676 24.0596 34.0676 23.4922 33.7176 23.1422L33.7167 23.1413C33.3667 22.7913 32.7993 22.7913 32.4493 23.1413Z" fill="white"/>
<path d="M22.9364 24.4089L32.4493 33.9217C32.7993 34.2717 33.3667 34.2717 33.7167 33.9217L33.7176 33.9208C34.0676 33.5708 34.0676 33.0034 33.7176 32.6534L24.2048 23.1405C23.8548 22.7906 23.2874 22.7906 22.9374 23.1405L22.9364 23.1415C22.5865 23.4915 22.5865 24.0589 22.9364 24.4089Z" fill="white"/>
</g>
</svg>
