<svg width="154" height="45" viewBox="0 0 154 45" fill="none" xmlns="http://www.w3.org/2000/svg">
<path d="M55.9367 33.2V13.5636H68.708V16.5455H59.4938V21.8764H68.0464V24.8583H59.4938V30.2181H68.7847V33.2H55.9367ZM81.1101 21.9531V24.8104H72.2699V21.9531H81.1101ZM95.5857 18.9617C95.4962 18.1243 95.1191 17.4723 94.4543 17.0057C93.7959 16.5391 92.9394 16.3058 91.8847 16.3058C91.1433 16.3058 90.5072 16.4176 89.9767 16.6414C89.4462 16.8651 89.0403 17.1687 88.759 17.5522C88.4778 17.9357 88.3339 18.3736 88.3276 18.8658C88.3276 19.2749 88.4202 19.6296 88.6056 19.9301C88.7974 20.2305 89.0562 20.4862 89.3822 20.6971C89.7082 20.9017 90.0694 21.0742 90.4657 21.2149C90.862 21.3555 91.2615 21.4737 91.6642 21.5696L93.5051 22.0299C94.2466 22.2024 94.9593 22.4357 95.6433 22.7298C96.3336 23.0238 96.9504 23.3946 97.4937 23.842C98.0435 24.2894 98.4781 24.8296 98.7977 25.4624C99.1173 26.0952 99.2771 26.8367 99.2771 27.6868C99.2771 28.8374 98.9831 29.8505 98.395 30.7262C97.807 31.5955 96.9568 32.2763 95.8446 32.7685C94.7388 33.2543 93.3996 33.4972 91.8272 33.4972C90.2995 33.4972 88.9732 33.2607 87.8482 32.7877C86.7295 32.3147 85.8538 31.6243 85.221 30.7166C84.5946 29.809 84.2558 28.7031 84.2047 27.3992H87.7043C87.7555 28.0831 87.9664 28.652 88.3371 29.1058C88.7079 29.5597 89.1905 29.8985 89.7849 30.1222C90.3858 30.3459 91.057 30.4578 91.7984 30.4578C92.5719 30.4578 93.2494 30.3427 93.8311 30.1126C94.4192 29.8761 94.8794 29.5501 95.2118 29.1346C95.5442 28.7127 95.7136 28.2205 95.72 27.658C95.7136 27.1467 95.5634 26.7248 95.2693 26.3924C94.9753 26.0536 94.563 25.7724 94.0325 25.5487C93.5083 25.3186 92.8947 25.114 92.1915 24.935L89.9575 24.3598C88.3403 23.9443 87.0619 23.3147 86.1223 22.4709C85.1891 21.6208 84.7224 20.4926 84.7224 19.0863C84.7224 17.9294 85.0357 16.9162 85.6621 16.0469C86.2949 15.1776 87.1546 14.5032 88.2413 14.0238C89.3279 13.538 90.5584 13.2951 91.9327 13.2951C93.3261 13.2951 94.547 13.538 95.5953 14.0238C96.65 14.5032 97.4778 15.1712 98.0786 16.0277C98.6795 16.8779 98.9895 17.8558 99.0087 18.9617H95.5857ZM109.649 18.4727V21.1573H101.183V18.4727H109.649ZM103.273 14.9443H106.744V28.7703C106.744 29.2369 106.814 29.5948 106.955 29.8441C107.102 30.087 107.294 30.2532 107.53 30.3427C107.767 30.4322 108.029 30.4769 108.316 30.4769C108.534 30.4769 108.732 30.461 108.911 30.429C109.096 30.397 109.237 30.3683 109.333 30.3427L109.917 33.0561C109.732 33.1201 109.467 33.1904 109.122 33.2671C108.783 33.3438 108.367 33.3885 107.875 33.4013C107.006 33.4269 106.223 33.2958 105.526 33.0082C104.829 32.7142 104.277 32.2603 103.867 31.6467C103.465 31.033 103.267 30.266 103.273 29.3455V14.9443ZM118.818 33.4876C117.379 33.4876 116.133 33.1712 115.078 32.5384C114.024 31.9056 113.205 31.0203 112.624 29.8825C112.048 28.7447 111.761 27.4152 111.761 25.8938C111.761 24.3725 112.048 23.0398 112.624 21.8956C113.205 20.7514 114.024 19.8629 115.078 19.2301C116.133 18.5973 117.379 18.2809 118.818 18.2809C120.256 18.2809 121.502 18.5973 122.557 19.2301C123.612 19.8629 124.427 20.7514 125.002 21.8956C125.584 23.0398 125.874 24.3725 125.874 25.8938C125.874 27.4152 125.584 28.7447 125.002 29.8825C124.427 31.0203 123.612 31.9056 122.557 32.5384C121.502 33.1712 120.256 33.4876 118.818 33.4876ZM118.837 30.7071C119.617 30.7071 120.269 30.4929 120.793 30.0647C121.317 29.63 121.707 29.0483 121.962 28.3196C122.225 27.5909 122.356 26.7791 122.356 25.8843C122.356 24.983 122.225 24.168 121.962 23.4393C121.707 22.7042 121.317 22.1193 120.793 21.6847C120.269 21.25 119.617 21.0327 118.837 21.0327C118.038 21.0327 117.373 21.25 116.842 21.6847C116.318 22.1193 115.925 22.7042 115.663 23.4393C115.407 24.168 115.28 24.983 115.28 25.8843C115.28 26.7791 115.407 27.5909 115.663 28.3196C115.925 29.0483 116.318 29.63 116.842 30.0647C117.373 30.4929 118.038 30.7071 118.837 30.7071ZM128.82 33.2V18.4727H132.186V20.9272H132.339C132.608 20.0771 133.068 19.4219 133.72 18.9617C134.378 18.4951 135.129 18.2617 135.973 18.2617C136.165 18.2617 136.379 18.2713 136.615 18.2905C136.858 18.3033 137.06 18.3257 137.22 18.3576V21.5504C137.072 21.4993 136.839 21.4546 136.52 21.4162C136.206 21.3715 135.903 21.3491 135.609 21.3491C134.976 21.3491 134.407 21.4865 133.902 21.7614C133.403 22.0299 133.01 22.4038 132.723 22.8832C132.435 23.3626 132.291 23.9155 132.291 24.5419V33.2H128.82ZM145.439 33.4876C143.962 33.4876 142.687 33.1808 141.613 32.5671C140.546 31.9471 139.724 31.0714 139.149 29.94C138.574 28.8022 138.286 27.4631 138.286 25.9226C138.286 24.4077 138.574 23.0781 139.149 21.934C139.731 20.7834 140.543 19.8885 141.584 19.2493C142.626 18.6037 143.85 18.2809 145.257 18.2809C146.164 18.2809 147.021 18.4279 147.826 18.722C148.638 19.0096 149.354 19.4571 149.974 20.0643C150.6 20.6715 151.093 21.445 151.451 22.3846C151.809 23.3178 151.988 24.4301 151.988 25.7213V26.7855H139.916V24.446H148.66C148.654 23.7813 148.51 23.19 148.229 22.6723C147.948 22.1481 147.555 21.7358 147.05 21.4354C146.551 21.135 145.969 20.9848 145.305 20.9848C144.595 20.9848 143.972 21.1573 143.435 21.5025C142.898 21.8413 142.479 22.2887 142.179 22.8448C141.885 23.3946 141.735 23.9986 141.728 24.657V26.6992C141.728 27.5558 141.885 28.2909 142.198 28.9045C142.511 29.5117 142.949 29.9784 143.512 30.3044C144.074 30.624 144.733 30.7838 145.487 30.7838C145.992 30.7838 146.449 30.7134 146.858 30.5728C147.267 30.4258 147.622 30.2117 147.922 29.9304C148.223 29.6492 148.45 29.3008 148.603 28.8853L151.844 29.2497C151.639 30.1062 151.249 30.8541 150.674 31.4933C150.105 32.1261 149.376 32.6183 148.488 32.9698C147.599 33.315 146.583 33.4876 145.439 33.4876Z" fill="#3C257E"/>
<path d="M16.8754 37.5009C17.3727 37.5009 17.8496 37.6984 18.2012 38.05C18.5529 38.4017 18.7504 38.8786 18.7504 39.3759C18.7504 39.8732 18.5529 40.3501 18.2012 40.7017C17.8496 41.0533 17.3727 41.2509 16.8754 41.2509C16.3781 41.2509 15.9012 41.0533 15.5496 40.7017C15.1979 40.3501 15.0004 39.8732 15.0004 39.3759C15.0004 38.8786 15.1979 38.4017 15.5496 38.05C15.9012 37.6984 16.3781 37.5009 16.8754 37.5009ZM30.0004 37.5009C30.4977 37.5009 30.9746 37.6984 31.3262 38.05C31.6779 38.4017 31.8754 38.8786 31.8754 39.3759C31.8754 39.8732 31.6779 40.3501 31.3262 40.7017C30.9746 41.0533 30.4977 41.2509 30.0004 41.2509C29.5031 41.2509 29.0262 41.0533 28.6746 40.7017C28.3229 40.3501 28.1254 39.8732 28.1254 39.3759C28.1254 38.8786 28.3229 38.4017 28.6746 38.05C29.0262 37.6984 29.5031 37.5009 30.0004 37.5009ZM4.1254 5.43838C4.39932 5.07308 4.79712 4.82029 5.24417 4.72742C5.69122 4.63456 6.15679 4.70802 6.55353 4.934L6.7504 5.06525L9.9529 7.46525C10.4979 7.87418 10.9212 8.42386 11.1773 9.05525L11.2898 9.37588H35.376C35.8844 9.37575 36.3874 9.47897 36.8546 9.67927C37.3218 9.87956 37.7434 10.1728 38.0938 10.541C38.4442 10.9093 38.716 11.345 38.8928 11.8215C39.0696 12.2981 39.1477 12.8057 39.1223 13.3134L39.0979 13.5909L38.241 20.444C37.9839 22.5064 37.0487 24.4248 35.5825 25.8978C34.1163 27.3708 32.2022 28.3148 30.141 28.5815L29.7173 28.6246L16.0054 29.7684L16.4929 31.8759H32.8129C33.2908 31.8764 33.7505 32.0594 34.098 32.3875C34.4455 32.7155 34.6546 33.1639 34.6826 33.641C34.7106 34.1181 34.5554 34.5878 34.2487 34.9543C33.9419 35.3208 33.5068 35.5563 33.0323 35.6127L32.8129 35.6259H16.4929C15.6972 35.626 14.922 35.373 14.2796 34.9035C13.6371 34.4339 13.1607 33.7722 12.9192 33.014L12.8385 32.7196L7.70103 10.4634L4.5004 8.06338C4.10258 7.76501 3.83958 7.32082 3.76925 6.82854C3.69892 6.33626 3.82704 5.8362 4.1254 5.43838Z" fill="#3C257E"/>
<path fill-rule="evenodd" clip-rule="evenodd" d="M24.6761 11.7H22.5226L21.6611 15.765H18.718V17.7631H21.3022L20.7997 20.1057H18.0001V22.1038H20.4408L19.6512 26.1H21.8765L22.6661 22.1038H24.6761L23.8865 26.1H26.1118L26.9014 22.1038H29.9882V20.1057H27.3321L27.8346 17.7631H30.706V15.765H28.1935L28.9832 11.7H26.8296L25.9682 15.765H23.8865L24.6761 11.7ZM24.1099 20.1057C23.5516 20.1057 23.1355 19.5909 23.2526 19.045L23.5275 17.7631H24.5245C25.0827 17.7631 25.4989 18.2779 25.3818 18.8238L25.1068 20.1057H24.1099Z" fill="white"/>
<path d="M22.5226 11.7V11.5072H22.3664L22.334 11.66L22.5226 11.7ZM24.6761 11.7L24.8653 11.7367L24.9099 11.5072H24.6761V11.7ZM25.9682 15.765V15.9578H26.1244L26.1568 15.805L25.9682 15.765ZM26.8296 11.7V11.5072H26.6734L26.6411 11.66L26.8296 11.7ZM28.9832 11.7L29.1724 11.7367L29.217 11.5072H28.9832V11.7ZM28.1935 15.765L28.0043 15.7283L27.9597 15.9578H28.1935V15.765ZM30.706 15.765H30.8988V15.5723H30.706V15.765ZM30.706 17.7631V17.9559H30.8988V17.7631H30.706ZM27.8346 17.7631V17.5704H27.6788L27.6461 17.7227L27.8346 17.7631ZM29.9882 20.1057H30.1809V19.9129H29.9882V20.1057ZM29.9882 22.1038V22.2965H30.1809V22.1038H29.9882ZM26.1118 26.1V26.2927H26.2702L26.3009 26.1373L26.1118 26.1ZM23.8865 26.1L23.6974 26.0626L23.6519 26.2927H23.8865V26.1ZM22.6661 22.1038V21.911H22.5077L22.477 22.0664L22.6661 22.1038ZM21.8765 26.1V26.2927H22.0349L22.0656 26.1373L21.8765 26.1ZM19.6512 26.1L19.4621 26.0626L19.4166 26.2927H19.6512V26.1ZM20.4408 22.1038L20.6299 22.1411L20.6754 21.911H20.4408V22.1038ZM18.0001 22.1038H17.8074V22.2965H18.0001V22.1038ZM18.0001 20.1057V19.9129H17.8074V20.1057H18.0001ZM20.7997 20.1057V20.2985H20.9555L20.9882 20.1461L20.7997 20.1057ZM18.718 17.7631H18.5252V17.9559H18.718V17.7631ZM18.718 15.765V15.5723H18.5252V15.765H18.718ZM25.3818 18.8238L25.5702 18.8642L25.3818 18.8238ZM23.2526 19.045L23.0641 19.0046L23.2526 19.045ZM22.5226 11.8927H24.6761V11.5072H22.5226V11.8927ZM24.4869 11.6632L23.6972 15.7283L24.0757 15.8018L24.8653 11.7367L24.4869 11.6632ZM23.8865 15.9578H25.9682V15.5723H23.8865V15.9578ZM26.1568 15.805L27.0182 11.7399L26.6411 11.66L25.7796 15.7251L26.1568 15.805ZM26.8296 11.8927H28.9832V11.5072H26.8296V11.8927ZM28.794 11.6632L28.0043 15.7283L28.3828 15.8018L29.1724 11.7367L28.794 11.6632ZM28.1935 15.9578H30.706V15.5723H28.1935V15.9578ZM30.5132 15.765V17.7631H30.8988V15.765H30.5132ZM30.706 17.5704H27.8346V17.9559H30.706V17.5704ZM27.6461 17.7227L27.1437 20.0653L27.5206 20.1461L28.0231 17.8035L27.6461 17.7227ZM27.3321 20.2985H29.9882V19.9129H27.3321V20.2985ZM29.7954 20.1057V22.1038H30.1809V20.1057H29.7954ZM29.9882 21.911H26.9014V22.2965H29.9882V21.911ZM26.7123 22.0664L25.9227 26.0626L26.3009 26.1373L27.0905 22.1411L26.7123 22.0664ZM26.1118 25.9072H23.8865V26.2927H26.1118V25.9072ZM24.0756 26.1373L24.8652 22.1411L24.487 22.0664L23.6974 26.0626L24.0756 26.1373ZM24.6761 21.911H22.6661V22.2965H24.6761V21.911ZM22.477 22.0664L21.6874 26.0626L22.0656 26.1373L22.8552 22.1411L22.477 22.0664ZM21.8765 25.9072H19.6512V26.2927H21.8765V25.9072ZM19.8403 26.1373L20.6299 22.1411L20.2517 22.0664L19.4621 26.0626L19.8403 26.1373ZM20.4408 21.911H18.0001V22.2965H20.4408V21.911ZM18.1929 22.1038V20.1057H17.8074V22.1038H18.1929ZM18.0001 20.2985H20.7997V19.9129H18.0001V20.2985ZM20.9882 20.1461L21.4907 17.8035L21.1137 17.7227L20.6113 20.0653L20.9882 20.1461ZM21.3022 17.5704H18.718V17.9559H21.3022V17.5704ZM18.9107 17.7631V15.765H18.5252V17.7631H18.9107ZM18.718 15.9578H21.6611V15.5723H18.718V15.9578ZM21.8497 15.805L22.7111 11.7399L22.334 11.66L21.4726 15.7251L21.8497 15.805ZM23.3391 17.7227L23.0641 19.0046L23.441 19.0854L23.716 17.8035L23.3391 17.7227ZM25.2953 20.1461L25.5702 18.8642L25.1933 18.7834L24.9183 20.0653L25.2953 20.1461ZM21.6611 15.9578H23.8865V15.5723H21.6611V15.9578ZM23.5275 17.5704H21.3022V17.9559H23.5275V17.5704ZM26.9014 21.911H24.6761V22.2965H26.9014V21.911ZM25.1068 20.2985H27.3321V19.9129H25.1068V20.2985ZM25.1068 19.9129H24.1099V20.2985H25.1068V19.9129ZM23.5275 17.9559H24.5245V17.5704H23.5275V17.9559ZM25.5702 18.8642C25.7131 18.1984 25.2055 17.5704 24.5245 17.5704V17.9559C24.96 17.9559 25.2846 18.3575 25.1933 18.7834L25.5702 18.8642ZM23.0641 19.0046C22.9213 19.6704 23.4289 20.2985 24.1099 20.2985V19.9129C23.6743 19.9129 23.3497 19.5113 23.441 19.0854L23.0641 19.0046Z" fill="#3C257E"/>
</svg>
