<svg width="115" height="34" viewBox="0 0 115 34" fill="none" xmlns="http://www.w3.org/2000/svg">
<path d="M41.6043 24.3555V9.75048H51.1033V11.9683H44.2501V15.9334H50.6112V18.1512H44.2501V22.1376H51.1603V24.3555H41.6043ZM60.3277 15.9904V18.1155H53.7526V15.9904H60.3277ZM71.0942 13.7654C71.0277 13.1426 70.7472 12.6577 70.2527 12.3106C69.763 11.9636 69.126 11.79 68.3415 11.79C67.79 11.79 67.317 11.8732 66.9224 12.0396C66.5278 12.206 66.2259 12.4319 66.0167 12.7171C65.8075 13.0024 65.7006 13.328 65.6958 13.6941C65.6958 13.9984 65.7647 14.2622 65.9026 14.4857C66.0452 14.7091 66.2378 14.8993 66.4803 15.0562C66.7227 15.2083 66.9913 15.3367 67.2861 15.4413C67.5809 15.5459 67.878 15.6338 68.1775 15.7052L69.5467 16.0475C70.0982 16.1758 70.6283 16.3493 71.137 16.568C71.6505 16.7867 72.1093 17.0625 72.5134 17.3953C72.9222 17.7281 73.2455 18.1298 73.4832 18.6005C73.7209 19.0711 73.8398 19.6226 73.8398 20.2549C73.8398 21.1107 73.6211 21.8643 73.1837 22.5156C72.7463 23.1622 72.114 23.6685 71.2868 24.0346C70.4643 24.3959 69.4683 24.5765 68.2987 24.5765C67.1625 24.5765 66.176 24.4006 65.3392 24.0488C64.5072 23.697 63.8559 23.1836 63.3852 22.5085C62.9193 21.8334 62.6674 21.0109 62.6293 20.041H65.2323C65.2703 20.5497 65.4272 20.9728 65.7029 21.3104C65.9787 21.6479 66.3376 21.8999 66.7798 22.0663C67.2267 22.2327 67.7259 22.3159 68.2773 22.3159C68.8526 22.3159 69.3566 22.2303 69.7892 22.0592C70.2266 21.8833 70.5689 21.6408 70.8161 21.3318C71.0633 21.018 71.1893 20.6519 71.1941 20.2336C71.1893 19.8532 71.0776 19.5394 70.8589 19.2922C70.6402 19.0402 70.3336 18.8311 69.939 18.6647C69.5491 18.4935 69.0927 18.3414 68.5697 18.2083L66.9081 17.7804C65.7053 17.4713 64.7545 17.0031 64.0556 16.3755C63.3615 15.7432 63.0144 14.9041 63.0144 13.8581C63.0144 12.9976 63.2474 12.2441 63.7133 11.5975C64.184 10.9509 64.8234 10.4494 65.6316 10.0928C66.4398 9.73146 67.355 9.5508 68.3772 9.5508C69.4136 9.5508 70.3217 9.73146 71.1014 10.0928C71.8858 10.4494 72.5015 10.9462 72.9484 11.5832C73.3953 12.2155 73.6259 12.9429 73.6401 13.7654H71.0942ZM81.5541 13.4017V15.3985H75.2572V13.4017H81.5541ZM76.8118 10.7774H79.3933V21.0608C79.3933 21.4078 79.4456 21.6741 79.5502 21.8595C79.6596 22.0402 79.8022 22.1638 79.9781 22.2303C80.154 22.2969 80.3489 22.3302 80.5629 22.3302C80.7245 22.3302 80.8719 22.3183 81.005 22.2945C81.1429 22.2707 81.2475 22.2493 81.3188 22.2303L81.7538 24.2485C81.6159 24.296 81.4186 24.3483 81.1619 24.4054C80.9099 24.4624 80.6009 24.4957 80.2348 24.5052C79.5883 24.5242 79.0059 24.4268 78.4876 24.2128C77.9694 23.9941 77.5582 23.6566 77.2539 23.2002C76.9544 22.7438 76.807 22.1733 76.8118 21.4887V10.7774ZM88.3735 24.5694C87.3038 24.5694 86.3767 24.3341 85.5922 23.8634C84.8078 23.3927 84.1993 22.7343 83.7666 21.888C83.3387 21.0418 83.1248 20.0529 83.1248 18.9214C83.1248 17.7899 83.3387 16.7986 83.7666 15.9476C84.1993 15.0966 84.8078 14.4358 85.5922 13.9651C86.3767 13.4944 87.3038 13.2591 88.3735 13.2591C89.4432 13.2591 90.3702 13.4944 91.1547 13.9651C91.9391 14.4358 92.5453 15.0966 92.9732 15.9476C93.4058 16.7986 93.6221 17.7899 93.6221 18.9214C93.6221 20.0529 93.4058 21.0418 92.9732 21.888C92.5453 22.7343 91.9391 23.3927 91.1547 23.8634C90.3702 24.3341 89.4432 24.5694 88.3735 24.5694ZM88.3877 22.5013C88.9677 22.5013 89.4527 22.3421 89.8425 22.0235C90.2324 21.7002 90.5224 21.2676 90.7126 20.7256C90.9075 20.1836 91.0049 19.5798 91.0049 18.9143C91.0049 18.2439 90.9075 17.6377 90.7126 17.0958C90.5224 16.549 90.2324 16.114 89.8425 15.7907C89.4527 15.4674 88.9677 15.3058 88.3877 15.3058C87.7935 15.3058 87.299 15.4674 86.9044 15.7907C86.5146 16.114 86.2222 16.549 86.0273 17.0958C85.8371 17.6377 85.742 18.2439 85.742 18.9143C85.742 19.5798 85.8371 20.1836 86.0273 20.7256C86.2222 21.2676 86.5146 21.7002 86.9044 22.0235C87.299 22.3421 87.7935 22.5013 88.3877 22.5013ZM95.8132 24.3555V13.4017H98.3163V15.2274H98.4304C98.6301 14.595 98.9724 14.1077 99.4574 13.7654C99.947 13.4184 100.506 13.2448 101.133 13.2448C101.276 13.2448 101.435 13.252 101.611 13.2662C101.792 13.2757 101.941 13.2924 102.06 13.3162V15.6909C101.951 15.6529 101.777 15.6196 101.54 15.591C101.307 15.5578 101.081 15.5411 100.862 15.5411C100.392 15.5411 99.9684 15.6433 99.5929 15.8478C99.222 16.0475 98.9296 16.3256 98.7157 16.6821C98.5018 17.0387 98.3948 17.45 98.3948 17.9159V24.3555H95.8132ZM108.174 24.5694C107.075 24.5694 106.127 24.3412 105.328 23.8848C104.534 23.4236 103.923 22.7723 103.495 21.9308C103.068 21.0846 102.854 20.0885 102.854 18.9428C102.854 17.816 103.068 16.8271 103.495 15.9761C103.928 15.1204 104.532 14.4548 105.307 13.9794C106.082 13.4992 106.992 13.2591 108.038 13.2591C108.713 13.2591 109.35 13.3684 109.949 13.5871C110.553 13.8011 111.086 14.1339 111.547 14.5855C112.013 15.0372 112.379 15.6124 112.645 16.3113C112.911 17.0054 113.044 17.8327 113.044 18.793V19.5846H104.066V17.8446H110.57C110.565 17.3501 110.458 16.9103 110.249 16.5253C110.04 16.1354 109.747 15.8288 109.372 15.6053C109.001 15.3819 108.568 15.2701 108.074 15.2701C107.546 15.2701 107.083 15.3985 106.683 15.6552C106.284 15.9072 105.972 16.24 105.749 16.6536C105.53 17.0625 105.419 17.5118 105.414 18.0014V19.5204C105.414 20.1575 105.53 20.7042 105.763 21.1606C105.996 21.6123 106.322 21.9593 106.74 22.2018C107.159 22.4395 107.648 22.5584 108.209 22.5584C108.585 22.5584 108.925 22.5061 109.229 22.4015C109.533 22.2921 109.797 22.1329 110.021 21.9237C110.244 21.7145 110.413 21.4554 110.527 21.1464L112.937 21.4174C112.785 22.0544 112.495 22.6107 112.067 23.0861C111.644 23.5568 111.102 23.9228 110.441 24.1843C109.781 24.441 109.025 24.5694 108.174 24.5694Z" fill="#3C257E"/>
<path d="M12.5516 27.892C12.9214 27.892 13.2761 28.0389 13.5377 28.3004C13.7992 28.5619 13.9461 28.9167 13.9461 29.2865C13.9461 29.6564 13.7992 30.0111 13.5377 30.2726C13.2761 30.5342 12.9214 30.6811 12.5516 30.6811C12.1817 30.6811 11.827 30.5342 11.5655 30.2726C11.3039 30.0111 11.157 29.6564 11.157 29.2865C11.157 28.9167 11.3039 28.5619 11.5655 28.3004C11.827 28.0389 12.1817 27.892 12.5516 27.892ZM22.3136 27.892C22.6834 27.892 23.0382 28.0389 23.2997 28.3004C23.5612 28.5619 23.7082 28.9167 23.7082 29.2865C23.7082 29.6564 23.5612 30.0111 23.2997 30.2726C23.0382 30.5342 22.6834 30.6811 22.3136 30.6811C21.9437 30.6811 21.589 30.5342 21.3275 30.2726C21.0659 30.0111 20.919 29.6564 20.919 29.2865C20.919 28.9167 21.0659 28.5619 21.3275 28.3004C21.589 28.0389 21.9437 27.892 22.3136 27.892ZM3.06847 4.04475C3.2722 3.77306 3.56808 3.58503 3.90058 3.51597C4.23308 3.4469 4.57936 3.50153 4.87444 3.66961L5.02087 3.76723L7.40281 5.55229C7.80816 5.85644 8.12298 6.26528 8.31346 6.73489L8.39714 6.97336H26.3118C26.6899 6.97326 27.0641 7.05004 27.4115 7.19901C27.759 7.34799 28.0726 7.56605 28.3332 7.83996C28.5938 8.11387 28.796 8.43791 28.9275 8.79238C29.059 9.14685 29.1171 9.52436 29.0982 9.90196L29.0801 10.1084L28.4427 15.2055C28.2515 16.7395 27.5559 18.1663 26.4654 19.2619C25.3749 20.3575 23.9512 21.0596 22.4182 21.258L22.103 21.29L11.9045 22.1407L12.2671 23.7082H24.4054C24.7609 23.7086 25.1028 23.8447 25.3612 24.0887C25.6197 24.3328 25.7752 24.6662 25.7961 25.0211C25.8169 25.3759 25.7015 25.7253 25.4733 25.9979C25.2452 26.2705 24.9216 26.4456 24.5686 26.4876L24.4054 26.4974H12.2671C11.6752 26.4975 11.0987 26.3093 10.6208 25.9601C10.143 25.6109 9.78865 25.1187 9.60902 24.5547L9.54905 24.3358L5.72792 7.78221L3.34739 5.99716C3.05149 5.77524 2.85588 5.44487 2.80357 5.07872C2.75127 4.71257 2.84655 4.34064 3.06847 4.04475Z" fill="#3C257E"/>
<path fill-rule="evenodd" clip-rule="evenodd" d="M18.3536 8.70215H16.7518L16.1111 11.7256H13.9221V13.2118H15.8442L15.4705 14.9541H13.3882V16.4402H15.2035L14.6162 19.4125H16.2713L16.8586 16.4402H18.3536L17.7663 19.4125H19.4214L20.0087 16.4402H22.3046V14.9541H20.3291L20.7028 13.2118H22.8385V11.7256H20.9698L21.5571 8.70215H19.9553L19.3146 11.7256H17.7663L18.3536 8.70215ZM17.9325 14.9541C17.5172 14.9541 17.2077 14.5712 17.2948 14.1652L17.4993 13.2118H18.2408C18.656 13.2118 18.9655 13.5947 18.8784 14.0007L18.6739 14.9541H17.9325Z" fill="white"/>
<path d="M16.7518 8.70215V8.55878H16.6357L16.6116 8.67243L16.7518 8.70215ZM18.3536 8.70215L18.4943 8.72949L18.5275 8.55878H18.3536V8.70215ZM19.3146 11.7256V11.869H19.4308L19.4549 11.7554L19.3146 11.7256ZM19.9553 8.70215V8.55878H19.8392L19.8151 8.67243L19.9553 8.70215ZM21.5571 8.70215L21.6978 8.72949L21.731 8.55878H21.5571V8.70215ZM20.9698 11.7256L20.829 11.6983L20.7959 11.869H20.9698V11.7256ZM22.8385 11.7256H22.9818V11.5823H22.8385V11.7256ZM22.8385 13.2118V13.3551H22.9818V13.2118H22.8385ZM20.7028 13.2118V13.0684H20.5869L20.5626 13.1817L20.7028 13.2118ZM22.3046 14.9541H22.4479V14.8107H22.3046V14.9541ZM22.3046 16.4402V16.5836H22.4479V16.4402H22.3046ZM19.4214 19.4125V19.5558H19.5392L19.5621 19.4403L19.4214 19.4125ZM17.7663 19.4125L17.6256 19.3847L17.5918 19.5558H17.7663V19.4125ZM16.8586 16.4402V16.2969H16.7408L16.718 16.4124L16.8586 16.4402ZM16.2713 19.4125V19.5558H16.3891L16.412 19.4403L16.2713 19.4125ZM14.6162 19.4125L14.4755 19.3847L14.4417 19.5558H14.6162V19.4125ZM15.2035 16.4402L15.3441 16.468L15.378 16.2969H15.2035V16.4402ZM13.3882 16.4402H13.2448V16.5836H13.3882V16.4402ZM13.3882 14.9541V14.8107H13.2448V14.9541H13.3882ZM15.4705 14.9541V15.0975H15.5863L15.6106 14.9842L15.4705 14.9541ZM13.9221 13.2118H13.7787V13.3551H13.9221V13.2118ZM13.9221 11.7256V11.5823H13.7787V11.7256H13.9221ZM18.8784 14.0007L18.7383 13.9706L18.8784 14.0007ZM17.2948 14.1652L17.435 14.1952L17.2948 14.1652ZM16.7518 8.84552H18.3536V8.55878H16.7518V8.84552ZM18.2129 8.67481L17.6255 11.6983L17.907 11.753L18.4943 8.72949L18.2129 8.67481ZM17.7663 11.869H19.3146V11.5823H17.7663V11.869ZM19.4549 11.7554L20.0956 8.73187L19.8151 8.67243L19.1744 11.6959L19.4549 11.7554ZM19.9553 8.84552H21.5571V8.55878H19.9553V8.84552ZM21.4163 8.67481L20.829 11.6983L21.1105 11.753L21.6978 8.72949L21.4163 8.67481ZM20.9698 11.869H22.8385V11.5823H20.9698V11.869ZM22.6951 11.7256V13.2118H22.9818V11.7256H22.6951ZM22.8385 13.0684H20.7028V13.3551H22.8385V13.0684ZM20.5626 13.1817L20.1889 14.924L20.4693 14.9842L20.843 13.2418L20.5626 13.1817ZM20.3291 15.0975H22.3046V14.8107H20.3291V15.0975ZM22.1612 14.9541V16.4402H22.4479V14.9541H22.1612ZM22.3046 16.2969H20.0087V16.5836H22.3046V16.2969ZM19.8681 16.4124L19.2808 19.3847L19.5621 19.4403L20.1494 16.468L19.8681 16.4124ZM19.4214 19.2691H17.7663V19.5558H19.4214V19.2691ZM17.9069 19.4403L18.4942 16.468L18.2129 16.4124L17.6256 19.3847L17.9069 19.4403ZM18.3536 16.2969H16.8586V16.5836H18.3536V16.2969ZM16.718 16.4124L16.1307 19.3847L16.412 19.4403L16.9993 16.468L16.718 16.4124ZM16.2713 19.2691H14.6162V19.5558H16.2713V19.2691ZM14.7568 19.4403L15.3441 16.468L15.0628 16.4124L14.4755 19.3847L14.7568 19.4403ZM15.2035 16.2969H13.3882V16.5836H15.2035V16.2969ZM13.5316 16.4402V14.9541H13.2448V16.4402H13.5316ZM13.3882 15.0975H15.4705V14.8107H13.3882V15.0975ZM15.6106 14.9842L15.9844 13.2418L15.704 13.1817L15.3303 14.924L15.6106 14.9842ZM15.8442 13.0684H13.9221V13.3551H15.8442V13.0684ZM14.0655 13.2118V11.7256H13.7787V13.2118H14.0655ZM13.9221 11.869H16.1111V11.5823H13.9221V11.869ZM16.2514 11.7554L16.8921 8.73187L16.6116 8.67243L15.9709 11.6959L16.2514 11.7554ZM17.3591 13.1817L17.1546 14.1351L17.435 14.1952L17.6395 13.2418L17.3591 13.1817ZM18.8141 14.9842L19.0186 14.0308L18.7383 13.9706L18.5338 14.924L18.8141 14.9842ZM16.1111 11.869H17.7663V11.5823H16.1111V11.869ZM17.4993 13.0684H15.8442V13.3551H17.4993V13.0684ZM20.0087 16.2969H18.3536V16.5836H20.0087V16.2969ZM18.6739 15.0975H20.3291V14.8107H18.6739V15.0975ZM18.6739 14.8107H17.9325V15.0975H18.6739V14.8107ZM17.4993 13.3551H18.2408V13.0684H17.4993V13.3551ZM19.0186 14.0308C19.1249 13.5355 18.7473 13.0684 18.2408 13.0684V13.3551C18.5648 13.3551 18.8062 13.6539 18.7383 13.9706L19.0186 14.0308ZM17.1546 14.1351C17.0484 14.6304 17.4259 15.0975 17.9325 15.0975V14.8107C17.6085 14.8107 17.367 14.512 17.435 14.1952L17.1546 14.1351Z" fill="#3C257E"/>
</svg>
