<svg width="18" height="20" viewBox="0 0 18 20" fill="none" xmlns="http://www.w3.org/2000/svg">
<mask id="mask0_223_1940" style="mask-type:luminance" maskUnits="userSpaceOnUse" x="0" y="0" width="18" height="20">
<path d="M17.7907 8.32559H9.2093V11.8837H14.1488C13.6884 14.1442 11.7628 15.4419 9.2093 15.4419C6.19535 15.4419 3.76744 13.014 3.76744 10C3.76744 6.98606 6.19535 4.55815 9.2093 4.55815C10.507 4.55815 11.6791 5.01863 12.6 5.77212L15.2791 3.09304C13.6465 1.66978 11.5535 0.79071 9.2093 0.79071C4.10233 0.79071 0 4.89304 0 10C0 15.107 4.10233 19.2093 9.2093 19.2093C13.814 19.2093 18 15.8605 18 10C18 9.45583 17.9163 8.86978 17.7907 8.32559Z" fill="white"/>
</mask>
<g mask="url(#mask0_223_1940)">
<path d="M-0.837219 15.4419V4.55817L6.27906 10L-0.837219 15.4419Z" fill="#FBBC05"/>
</g>
<mask id="mask1_223_1940" style="mask-type:luminance" maskUnits="userSpaceOnUse" x="0" y="0" width="18" height="20">
<path d="M17.7907 8.32559H9.2093V11.8837H14.1488C13.6884 14.1442 11.7628 15.4419 9.2093 15.4419C6.19535 15.4419 3.76744 13.014 3.76744 10C3.76744 6.98606 6.19535 4.55815 9.2093 4.55815C10.507 4.55815 11.6791 5.01863 12.6 5.77212L15.2791 3.09304C13.6465 1.66978 11.5535 0.79071 9.2093 0.79071C4.10233 0.79071 0 4.89304 0 10C0 15.107 4.10233 19.2093 9.2093 19.2093C13.814 19.2093 18 15.8605 18 10C18 9.45583 17.9163 8.86978 17.7907 8.32559Z" fill="white"/>
</mask>
<g mask="url(#mask1_223_1940)">
<path d="M-0.837219 4.5582L6.27906 10.0001L9.20929 7.44659L19.2558 5.81402V-0.0464478H-0.837219V4.5582Z" fill="#EA4335"/>
</g>
<mask id="mask2_223_1940" style="mask-type:luminance" maskUnits="userSpaceOnUse" x="0" y="0" width="18" height="20">
<path d="M17.7907 8.32559H9.2093V11.8837H14.1488C13.6884 14.1442 11.7628 15.4419 9.2093 15.4419C6.19535 15.4419 3.76744 13.014 3.76744 10C3.76744 6.98606 6.19535 4.55815 9.2093 4.55815C10.507 4.55815 11.6791 5.01863 12.6 5.77212L15.2791 3.09304C13.6465 1.66978 11.5535 0.79071 9.2093 0.79071C4.10233 0.79071 0 4.89304 0 10C0 15.107 4.10233 19.2093 9.2093 19.2093C13.814 19.2093 18 15.8605 18 10C18 9.45583 17.9163 8.86978 17.7907 8.32559Z" fill="white"/>
</mask>
<g mask="url(#mask2_223_1940)">
<path d="M-0.837219 15.4419L11.7209 5.81402L15.0279 6.23262L19.2558 -0.0464478V20.0466H-0.837219V15.4419Z" fill="#34A853"/>
</g>
<mask id="mask3_223_1940" style="mask-type:luminance" maskUnits="userSpaceOnUse" x="0" y="0" width="18" height="20">
<path d="M17.7907 8.32559H9.2093V11.8837H14.1488C13.6884 14.1442 11.7628 15.4419 9.2093 15.4419C6.19535 15.4419 3.76744 13.014 3.76744 10C3.76744 6.98606 6.19535 4.55815 9.2093 4.55815C10.507 4.55815 11.6791 5.01863 12.6 5.77212L15.2791 3.09304C13.6465 1.66978 11.5535 0.79071 9.2093 0.79071C4.10233 0.79071 0 4.89304 0 10C0 15.107 4.10233 19.2093 9.2093 19.2093C13.814 19.2093 18 15.8605 18 10C18 9.45583 17.9163 8.86978 17.7907 8.32559Z" fill="white"/>
</mask>
<g mask="url(#mask3_223_1940)">
<path d="M19.2558 20.0465L6.27909 10L4.60468 8.74421L19.2558 4.55817V20.0465Z" fill="#4285F4"/>
</g>
</svg>