<svg width="16" height="17" viewBox="0 0 16 17" fill="none" xmlns="http://www.w3.org/2000/svg">
<path d="M3.16675 4.30029L4.16675 3.30029V6.96696M4.16675 6.96696H3.16675M4.16675 6.96696H4.83341M8.83341 9.63363H7.77091C7.28375 9.63363 7.01222 9.09088 7.2706 8.7052C7.30244 8.65769 7.3475 8.62104 7.39511 8.58936L8.59502 7.79093C8.64263 7.75924 8.68754 7.72245 8.72005 7.67539C9.01697 7.24551 8.71427 6.63363 8.16847 6.63363H7.16675M11.1667 9.96696H12.131C12.954 9.96696 13.1 11.2253 12.3401 11.4374C12.3033 11.4477 12.2648 11.4518 12.2266 11.4531L11.8334 11.467L12.2266 11.4808C12.2648 11.4822 12.3033 11.4863 12.3401 11.4965C13.1 11.7086 12.954 12.967 12.131 12.967H11.1667" stroke="#667085" stroke-width="1.5" stroke-linecap="round" stroke-linejoin="round"/>
</svg>
