<svg width="34" height="34" viewBox="0 0 34 34" fill="none" xmlns="http://www.w3.org/2000/svg">
<rect x="0.866089" y="0.558105" width="32.622" height="32.622" rx="16.311" fill="#DA1E28"/>
<path d="M14.0997 20.7621C13.8931 20.7621 13.6865 20.6859 13.5234 20.5228C13.208 20.2075 13.208 19.6855 13.5234 19.3702L19.6781 13.2155C19.9934 12.9002 20.5153 12.9002 20.8307 13.2155C21.146 13.5309 21.146 14.0528 20.8307 14.3682L14.676 20.5228C14.5238 20.6859 14.3063 20.7621 14.0997 20.7621Z" fill="white"/>
<path d="M20.2544 20.7621C20.0478 20.7621 19.8412 20.6859 19.6781 20.5228L13.5234 14.3682C13.208 14.0528 13.208 13.5309 13.5234 13.2155C13.8387 12.9002 14.3607 12.9002 14.676 13.2155L20.8307 19.3702C21.146 19.6855 21.146 20.2075 20.8307 20.5228C20.6676 20.6859 20.461 20.7621 20.2544 20.7621Z" fill="white"/>
</svg>
