<svg width="34" height="34" viewBox="0 0 34 34" fill="none" xmlns="http://www.w3.org/2000/svg">
<rect x="0.866089" y="0.558105" width="32.622" height="32.622" rx="16.311" fill="#F1C21B"/>
<path d="M17.1771 18.7717C16.7313 18.7717 16.3616 18.402 16.3616 17.9562V12.5192C16.3616 12.0733 16.7313 11.7036 17.1771 11.7036C17.623 11.7036 17.9927 12.0733 17.9927 12.5192V17.9562C17.9927 18.402 17.623 18.7717 17.1771 18.7717Z" fill="#262626"/>
<path d="M17.177 22.3061C17.0356 22.3061 16.8943 22.2735 16.7638 22.2191C16.6333 22.1647 16.5137 22.0886 16.4049 21.9907C16.3071 21.882 16.231 21.7733 16.1766 21.6319C16.1222 21.5014 16.0896 21.36 16.0896 21.2187C16.0896 21.0773 16.1222 20.936 16.1766 20.8055C16.231 20.675 16.3071 20.5554 16.4049 20.4466C16.5137 20.3488 16.6333 20.2726 16.7638 20.2183C17.0248 20.1095 17.3292 20.1095 17.5902 20.2183C17.7207 20.2726 17.8403 20.3488 17.9491 20.4466C18.0469 20.5554 18.123 20.675 18.1774 20.8055C18.2318 20.936 18.2644 21.0773 18.2644 21.2187C18.2644 21.36 18.2318 21.5014 18.1774 21.6319C18.123 21.7733 18.0469 21.882 17.9491 21.9907C17.8403 22.0886 17.7207 22.1647 17.5902 22.2191C17.4597 22.2735 17.3184 22.3061 17.177 22.3061Z" fill="#262626"/>
</svg>
